<?xml version="1.0" standalone="no"?>
<!DOCTYPE svg PUBLIC "-//W3C//DTD SVG 1.1//EN" "http://www.w3.org/Graphics/SVG/1.1/DTD/svg11.dtd" >
<svg xmlns="http://www.w3.org/2000/svg">
<metadata></metadata>
<defs>
<font id="timeburnerregular" horiz-adv-x="1069" >
<font-face units-per-em="2048" ascent="1638" descent="-410" />
<missing-glyph horiz-adv-x="591" />
<glyph horiz-adv-x="2048" />
<glyph horiz-adv-x="2048" />
<glyph unicode="&#xd;" horiz-adv-x="591" />
<glyph unicode=" "  horiz-adv-x="591" />
<glyph unicode="&#x09;" horiz-adv-x="591" />
<glyph unicode="&#xa0;" horiz-adv-x="591" />
<glyph unicode="!" horiz-adv-x="481" d="M178 0v176h109v-176h-109zM180 319v1500h107v-1500h-107z" />
<glyph unicode="&#x22;" horiz-adv-x="587" d="M68 1053l4 4q55 57 88 134t33 165v174h108v-174q0 -111 -42 -207t-114 -170l-2 -2zM272 1053l4 4q57 57 90 134t33 165v174h107v-174q0 -111 -41 -207t-113 -170l-4 -2z" />
<glyph unicode="#" horiz-adv-x="1869" d="M55 496l45 108h525l127 297h-523l17 39l28 68h523l10 22l201 467h116l-200 -467l-11 -22h258l11 22l200 467h117l-201 -467l-10 -22h524l-36 -86l-11 -21h-522l-127 -297h522l-47 -108h-522l-211 -490h-117l211 490h-258l-211 -490h-116l211 490h-523zM741 604h258 l127 297h-258z" />
<glyph unicode="$" horiz-adv-x="1054" d="M125 397h106q0 -53 18.5 -102t51.5 -87t77 -64.5t95 -34.5v587q-72 8 -134.5 42t-108.5 84t-74.5 116t-30.5 139v6v2v9v10v2v6q2 74 30.5 138.5t74.5 114.5t108.5 83t134.5 43v70h107v-70q74 -10 137 -44t110 -87t74 -122t27 -144v-23v23h-107q0 111 -68.5 190.5 t-172.5 99.5v-587q74 -10 137 -45t110 -88.5t74 -122t27 -144.5v-22v22q0 -76 -27 -143.5t-74 -120.5t-110.5 -88t-136.5 -45v-70h-107v70q-74 10 -137.5 45t-110.5 88t-73.5 121t-26.5 143zM231 1094q0 -53 18.5 -102.5t51.5 -87.5t77 -64.5t95 -34.5v579 q-104 -20 -173 -99.5t-69 -190.5zM580 109q104 20 171.5 99.5t69.5 188.5q0 111 -68.5 192t-172.5 99v-579z" />
<glyph unicode="%" horiz-adv-x="1398" d="M174 1206q0 55 21.5 104.5t57.5 85.5t85 57.5t104 21.5t104.5 -21.5t85.5 -57.5t57.5 -85t21.5 -105q0 -55 -21.5 -103t-57.5 -85t-85 -57.5t-105 -20.5q-55 0 -104 20.5t-85 57.5t-57.5 85t-21.5 103zM221 0l858 1497h123l-858 -1497h-123zM283 1206q0 -66 47 -112.5 t112 -46.5q66 0 113 47t47 112q0 68 -47 115t-113 47t-112.5 -47t-46.5 -115zM713 279q0 55 21.5 103t57 85t85 57.5t104.5 20.5t103.5 -20.5t85 -57.5t57 -85t20.5 -103t-20.5 -104.5t-57 -85.5t-85 -57.5t-103.5 -21.5t-104.5 21.5t-85 57.5t-57 85t-21.5 105zM819 279 q0 -68 47 -115t115 -47q66 0 113 47t47 115q0 66 -47 112.5t-113 46.5q-68 0 -115 -47t-47 -112z" />
<glyph unicode="&#x26;" horiz-adv-x="1290" d="M162 395q0 117 58.5 210t152.5 145q-82 51 -133.5 135t-55.5 186v6v2v11v10v2v6q4 80 37 149.5t87 122t126 82t152 29.5q84 0 156.5 -32t127.5 -85l-75 -76q-41 41 -94.5 63.5t-114.5 22.5t-114.5 -23.5t-93.5 -63.5t-63.5 -93t-23.5 -114q0 -59 21.5 -110.5t58.5 -90.5 t87 -63.5t107 -28.5q6 0 11.5 -1t9.5 -1v-107h-23q-61 0 -115.5 -22.5t-94.5 -62.5t-62.5 -93t-22.5 -115q0 -61 22.5 -115.5t62.5 -94.5t94.5 -62.5t115.5 -22.5q88 0 166 34t136.5 91.5t92 135t33.5 167.5v160h-125v107h355v-107h-123v-160q0 -111 -41 -207t-113 -168.5 t-168 -114.5t-205 -44h-8q-84 0 -156.5 31.5t-127 86t-86 127t-31.5 156.5z" />
<glyph unicode="'" horiz-adv-x="405" d="M92 1053l2 4q57 57 90 134t33 165v174h107v-174q0 -111 -41 -207t-113 -170l-2 -2z" />
<glyph unicode="(" horiz-adv-x="657" d="M242 0v1491q0 111 42 208t113 169l2 2l76 -76l-4 -2q-57 -59 -89 -136t-32 -165v-1491q0 -88 32 -165t89 -134l4 -4l-76 -76l-2 2q-72 74 -113.5 170t-41.5 207z" />
<glyph unicode=")" horiz-adv-x="589" d="M154 -305l4 4q55 57 88 134t33 165v1491q0 88 -33 165t-88 136l-4 2l75 76l2 -2q72 -72 114 -169.5t42 -207.5v-1491q0 -111 -42 -207t-114 -170l-2 -2z" />
<glyph unicode="*" horiz-adv-x="1064" d="M141 1206l33 103l309 -101v322h107v-326l307 101l33 -103l-309 -100l190 -260l-86 -64l-193 264l-188 -262l-88 64l193 262z" />
<glyph unicode="+" horiz-adv-x="1259" d="M115 563v109h448v448h107v-448h450v-109h-450v-448h-107v448h-448z" />
<glyph unicode="," horiz-adv-x="489" d="M137 -297l4 4q57 57 90 134t33 165v174h107v-174q0 -111 -41 -207t-113 -170l-4 -2z" />
<glyph unicode="-" d="M141 559v109h799v-109h-799z" />
<glyph unicode="." horiz-adv-x="348" d="M121 6v174h108v-174h-108z" />
<glyph unicode="/" horiz-adv-x="1249" d="M131 6l858 1497h125l-860 -1497h-123z" />
<glyph unicode="0" horiz-adv-x="1280" d="M111 532v695q0 111 42 209t114.5 170.5t169.5 114.5t208 42t208 -42t170 -114.5t115 -171t42 -208.5v-695q0 -111 -42 -209t-115 -170.5t-170 -114.5t-208 -42t-208 42t-169.5 114.5t-114.5 171t-42 208.5zM217 532q0 -90 34 -167.5t91 -136t135 -92.5t168 -34 q88 0 166 34t136.5 92.5t92 136t33.5 167.5v695q0 88 -33.5 167t-92 136t-136.5 91t-166 34q-90 0 -168 -34t-135 -91t-91 -136t-34 -167v-695z" />
<glyph unicode="1" horiz-adv-x="548" d="M86 1659v108h283h20v-1767h-108v1659h-195z" />
<glyph unicode="2" horiz-adv-x="899" d="M78 0l590 1024q12 23 23 47.5t20 48.5q6 29 10 55.5t4 55.5q0 88 -34 167t-92 136t-136 91t-166 34q-82 0 -158 -29v113q74 25 158 24q111 0 208 -42t170 -114.5t114.5 -171t41.5 -208.5q0 -53 -7 -93t-20 -75t-32.5 -70t-42.5 -75l-467 -812h488v-106h-549h-123z" />
<glyph unicode="3" horiz-adv-x="1263" d="M102 539h107q0 -90 33.5 -168t92 -136.5t136.5 -92t166 -33.5t167 33.5t137 92t92 136.5t34 168q0 88 -34 165.5t-92 136t-137 92.5t-167 34h-68l402 694h-762v108h823h125l-401 -696l-8 -12q92 -18 169.5 -66.5t134 -118t89.5 -155.5t33 -182q0 -111 -42 -209.5 t-115 -171t-171 -114.5t-209 -42t-208 42t-170 114.5t-115 171t-42 209.5z" />
<glyph unicode="4" horiz-adv-x="1292" d="M57 743l590 1024h125l-530 -917h661v917h109v-917h174v-107h-174v-743h-109v743h-723h-123z" />
<glyph unicode="5" horiz-adv-x="1130" d="M133 154l76 75q61 -63 140 -95t162 -32t162 32t140 95q63 61 94 140.5t31 162t-30.5 161.5t-94.5 141q-63 63 -141 95t-162 32h-311h-54v808h54h788v-106h-735v-596h258q104 0 202.5 -40t176.5 -118t116.5 -176t38.5 -201.5t-38.5 -202t-116.5 -175.5 q-78 -78 -176.5 -118t-201.5 -40t-201.5 40t-176.5 118z" />
<glyph unicode="6" horiz-adv-x="1300" d="M88 539q0 109 41 206h-2l6 11q23 49 55 94l531 919h123l-426 -737q98 41 207 41q111 0 208 -42t169.5 -114.5t114.5 -170t42 -207.5q0 -111 -42 -209.5t-114.5 -171t-170 -114.5t-207.5 -42q-111 0 -208.5 42t-170 114.5t-114.5 171t-42 209.5zM195 539q0 -90 33.5 -168 t92 -136.5t136.5 -92t166 -33.5t166.5 33.5t136 92t91.5 136.5t34 168q0 88 -34 165.5t-91.5 136t-136 92.5t-166.5 34q-106 0 -195.5 -48.5t-148.5 -125.5l-27 -48h-4q-53 -94 -53 -206z" />
<glyph unicode="7" horiz-adv-x="1122" d="M121 1659v108h936q-190 -444 -377.5 -883.5t-380.5 -883.5h-117l713 1659h-774z" />
<glyph unicode="8" horiz-adv-x="1259" d="M98 537q0 82 23.5 157.5t66.5 139t101.5 112.5t130.5 80q-86 53 -136.5 142t-50.5 198q0 82 32 155.5t86.5 128t127 86t156.5 31.5q82 0 155.5 -31.5t128 -86t86 -128t31.5 -155.5q0 -109 -51 -198t-137 -142q72 -31 131 -80t101 -112.5t65.5 -139.5t23.5 -157 q0 -111 -42 -209.5t-114.5 -171t-170 -114.5t-207.5 -42q-111 0 -209 42t-171 114.5t-115 171t-42 209.5zM207 537q0 -90 33.5 -168t91 -136.5t135.5 -92.5t168 -34q88 0 166 34t136 92.5t92 136t34 168.5q0 88 -34 165.5t-92 136t-136 92.5t-166 34q-90 0 -168 -34 t-135.5 -92.5t-91 -136t-33.5 -165.5zM340 1366q0 -61 22.5 -115.5t62.5 -94.5t94.5 -62.5t115.5 -22.5t114.5 22.5t93.5 62.5t62.5 94.5t22.5 115.5t-22.5 114.5t-62.5 93.5t-93.5 62.5t-114.5 22.5t-115.5 -22.5t-94.5 -62.5t-62.5 -93.5t-22.5 -114.5z" />
<glyph unicode="9" horiz-adv-x="1253" d="M82 1231q0 111 42 209t114.5 170.5t170 114.5t207.5 42q111 0 209.5 -42t171 -114.5t114.5 -171t42 -208.5q0 -96 -35 -189q-10 -25 -27.5 -57.5t-38 -67t-40 -67.5t-33.5 -57l-459 -793h-123l426 737q-98 -41 -207 -41q-111 0 -208 42t-169.5 115t-114.5 170t-42 208z M188 1231q0 -88 34 -166t92.5 -136.5t136 -92t165.5 -33.5t167 33.5t136.5 92t91 136.5t33.5 166t-33.5 167t-91 136t-136 91t-167.5 34q-88 0 -165.5 -34t-136 -91t-92.5 -136t-34 -167z" />
<glyph unicode=":" horiz-adv-x="481" d="M174 0v174h109v-174h-109zM174 727v174h109v-174h-109z" />
<glyph unicode=";" horiz-adv-x="532" d="M111 -303l4 4q57 57 90 134t33 165h106q0 -111 -42 -207t-114 -170l-2 -2zM238 0v174h106v-174h-106zM238 727v174h106v-174h-106z" />
<glyph unicode="&#x3c;" horiz-adv-x="1122" d="M111 682l75 76l607 606h151l-76 -76l-606 -606l606 -606l76 -76h-151l-607 606z" />
<glyph unicode="=" horiz-adv-x="1331" d="M152 371v106h1005v-106h-1005zM152 762v106h1005v-106h-1005z" />
<glyph unicode="&#x3e;" horiz-adv-x="1196" d="M172 0l76 76l606 606l-606 606l-76 76h152l606 -606l76 -76l-76 -76l-606 -606h-152z" />
<glyph unicode="?" horiz-adv-x="1320" d="M119 1284q0 111 42 208t114.5 170t170 115t207.5 42q111 0 208 -42t170 -115t115 -170t42 -208q0 -104 -37 -196.5t-102.5 -164t-153.5 -116.5t-188 -55v-433h-107v537h53q88 0 166 34t136.5 91t92 135t33.5 168q0 88 -33.5 166t-92 136.5t-136.5 92t-166 33.5 q-90 0 -167.5 -33.5t-135 -92t-91.5 -136.5t-34 -166h-106zM600 0v176h107v-176h-107z" />
<glyph unicode="@" horiz-adv-x="1343" d="M135 518q0 111 42 209t115 171t170 115t208 42t208 -42t169.5 -115t114.5 -171t42 -209q0 -147 -71 -266h-35h-94h-66h-109v53q-66 -53 -159 -53q-55 0 -104.5 20.5t-85.5 57.5t-57.5 85t-21.5 103t21.5 104.5t57.5 86t85.5 57t104.5 20.5t104 -20.5t85 -57t57.5 -86 t21.5 -104.5v-160h129q31 74 31 160q0 88 -34 167t-91.5 137.5t-136 92t-166.5 33.5t-166 -33.5t-136.5 -92t-92 -137.5t-33.5 -167t33.5 -166t92 -136t136.5 -92t166 -34q84 0 166 33l41 -98q-98 -41 -207 -41q-111 0 -208 42t-170 114.5t-115 170t-42 207.5zM510 518 q0 -66 47 -113t113 -47t112.5 47t46.5 113q0 68 -47 115t-112 47q-66 0 -113 -47t-47 -115z" />
<glyph unicode="A" horiz-adv-x="1343" d="M143 0v981q0 111 42 208t115 170t171 115t209 42t208 -42t169.5 -115t114.5 -170t42 -208v-303v-107v-571h-106v571h-856v-571h-109zM252 678h856v303q0 88 -34 166t-92 136t-136 92t-166 34q-90 0 -168 -34t-135.5 -92t-91 -136t-33.5 -166v-303z" />
<glyph unicode="B" horiz-adv-x="1110" d="M119 0v694v109v696h497q82 0 156 -31.5t128 -86t86 -128t32 -157.5q0 -106 -50 -195.5t-137 -142.5q98 -49 159 -144.5t61 -212.5q0 -84 -32 -156.5t-86 -127t-128 -86t-156 -31.5h-530zM225 106h424q61 0 114.5 23t93.5 62.5t63.5 94t23.5 115.5t-23.5 114.5t-63.5 93.5 t-93.5 63.5t-114.5 23.5q-8 0 -16 -1t-17 -1h-391v-588zM225 803h391q61 0 114.5 22.5t93.5 62.5t62.5 93t22.5 115q0 61 -22.5 114.5t-62.5 93t-93 63.5t-115 24h-391v-588z" />
<glyph unicode="C" horiz-adv-x="1175" d="M100 512v471q0 111 42 208t115 170t170 115t208 42q150 0 271.5 -73t193.5 -196l-94 -53q-55 98 -152.5 156.5t-218.5 58.5q-88 0 -166 -34t-136.5 -92t-92 -136t-33.5 -166v-471q0 -90 33.5 -168t92 -135t136.5 -91t166 -34q121 0 218 58.5t153 154.5l94 -53 q-72 -121 -194 -194t-271 -73q-111 0 -208 42t-170 115t-115 170t-42 208z" />
<glyph unicode="D" horiz-adv-x="1236" d="M143 -2v6v1493h496q111 0 209 -42t171 -115.5t115 -171t42 -207.5v-429q0 -111 -42 -208t-115 -169.5t-171 -114.5t-209 -42h-496zM250 104h389q88 0 167 34t136 92.5t91 136t34 165.5v429q0 88 -34 166.5t-91 136t-136 91.5t-167 34h-389v-1285z" />
<glyph unicode="E" horiz-adv-x="1089" d="M133 0v1444v55h899v-108h-792v-588h692v-109h-692v-588h792v-106h-899z" />
<glyph unicode="F" horiz-adv-x="1064" d="M117 0v1499h897v-108h-791v-588h690v-109h-690v-694h-106z" />
<glyph unicode="G" horiz-adv-x="1308" d="M127 512v471q0 111 42 208t114.5 170t171 115t209.5 42q147 0 270 -73t192 -196l-92 -53q-55 98 -153.5 156.5t-216.5 58.5q-90 0 -168 -34t-135.5 -92t-91 -136t-33.5 -166v-471q0 -88 33.5 -166t91 -136t135 -92t168.5 -34q88 0 165.5 34t136 92t92.5 136t34 166v61 h-344v107h344h106v-107v-61q0 -111 -42 -208t-114.5 -170t-170 -115t-207.5 -42q-111 0 -209.5 42t-171 115t-114.5 170t-42 208z" />
<glyph unicode="H" horiz-adv-x="1165" d="M141 0v1499h107v-696h686v696h106v-1499h-106v694h-686v-694h-107z" />
<glyph unicode="I" horiz-adv-x="430" d="M174 0v1499h107v-1499h-107z" />
<glyph unicode="J" horiz-adv-x="518" d="M-164 -211q88 0 167 34t136.5 92t91 136t33.5 166v1282h109v-1282q0 -111 -42 -208t-115 -169.5t-171 -114.5t-209 -42v106z" />
<glyph unicode="K" horiz-adv-x="1304" d="M160 0v1497h106v-1497h-106zM266 817l76 76l606 604h152l-76 -74l-606 -606l606 -606l211 -211h-152l-741 741z" />
<glyph unicode="L" horiz-adv-x="1204" d="M178 0v1497h107v-1391h845v-106h-899h-53z" />
<glyph unicode="M" horiz-adv-x="1705" d="M102 0v1114q0 82 32 155.5t86 128t127 86.5t157 32q111 0 203 -54.5t145 -146.5q51 92 143 146.5t205 54.5q82 0 156 -32t128 -86.5t86 -128t32 -155.5v-1114h-109v1114q0 61 -22.5 114.5t-62.5 93.5t-93 63.5t-115 23.5q-61 0 -115.5 -23.5t-94.5 -63.5t-62.5 -93 t-22.5 -115v-1114h-108v1114q0 61 -22.5 114.5t-62.5 93.5t-93.5 63.5t-114.5 23.5t-115.5 -23.5t-94.5 -63.5t-62.5 -93t-22.5 -115v-1114h-107z" />
<glyph unicode="N" horiz-adv-x="1345" d="M131 0v981q0 111 42 208t114.5 170t170 115t208.5 42t208 -42t169.5 -115t114.5 -170t42 -208v-981h-106v981q0 88 -34 166t-92.5 136t-136 92t-165.5 34q-90 0 -168 -34t-135.5 -92t-91 -136t-33.5 -166v-981h-107z" />
<glyph unicode="O" horiz-adv-x="1280" d="M123 512v471q0 111 42 208t114.5 170t171 115t208.5 42q111 0 208.5 -42t170 -115t114.5 -170t42 -208v-471q0 -111 -42 -208t-114.5 -170t-170 -115t-208.5 -42t-209 42t-170.5 115t-114.5 170t-42 208zM231 512q0 -88 34 -166t91.5 -136t135 -92t167.5 -34q88 0 166 34 t136.5 92t92 136t33.5 166v471q0 88 -33.5 166t-92 136t-136 92t-166.5 34q-90 0 -167.5 -34t-135 -92t-91.5 -136t-34 -166v-471z" />
<glyph unicode="P" horiz-adv-x="1067" d="M137 0v1499h498q82 0 155.5 -31.5t128 -86t86 -128t31.5 -157.5t-31.5 -157t-86 -127t-128 -86t-155.5 -32h-391v-694h-107zM244 803h391q61 0 114.5 22.5t93.5 62.5t63.5 93t23.5 115q0 61 -23.5 114.5t-63.5 93t-93.5 63.5t-114.5 24h-391v-588z" />
<glyph unicode="Q" horiz-adv-x="1333" d="M131 516v471q0 111 42 208t114.5 170t170 115t208.5 42t209 -42t170.5 -115t114.5 -170t42 -208v-471q0 -102 -36 -192.5t-98 -161t-147 -117.5t-184 -59q33 -86 107 -139.5t170 -53.5v-106q-70 0 -132.5 22.5t-112.5 61.5t-87 93t-55 118q-104 8 -194.5 52t-157 116.5 t-105.5 166t-39 199.5zM238 516q0 -88 33.5 -166t92 -136t136.5 -92t166 -34t166.5 34t136 92t91.5 136t34 166v471q0 88 -34 166t-91.5 136.5t-136 92t-166.5 33.5t-166 -33.5t-136.5 -92t-92 -136.5t-33.5 -166v-471z" />
<glyph unicode="R" horiz-adv-x="1052" d="M117 0v1499h495q84 0 157 -31.5t127 -86t86 -128t32 -157.5q0 -74 -24.5 -140.5t-70 -119t-105.5 -87t-130 -47.5h6l301 -702h-117l-299 694h-352v-694h-106zM223 803h389q61 0 114.5 22.5t93.5 62.5t63.5 93t23.5 115q0 61 -23.5 114.5t-63.5 93t-93 63.5t-115 24h-389 v-588z" />
<glyph unicode="S" horiz-adv-x="1054" d="M57 1096q0 84 32 157.5t86 128t127 86t157 31.5h465v-108h-465q-61 0 -114.5 -24t-93.5 -63.5t-62.5 -93t-22.5 -114.5t22.5 -114.5t62.5 -93.5t93 -62.5t115 -22.5h135q82 0 155.5 -32t128 -86t86 -128t31.5 -156q0 -84 -31.5 -156.5t-86 -127t-128 -86t-155.5 -31.5 h-465v106h465q61 0 114.5 23t93.5 62.5t63.5 94t23.5 115.5t-23.5 114.5t-63.5 93.5t-93.5 62.5t-114.5 22.5h-135q-84 0 -157 32t-127 86t-86 127t-32 157z" />
<glyph unicode="T" horiz-adv-x="1046" d="M37 1384v107h993v-107h-442v-1384h-109v1384h-442z" />
<glyph unicode="U" horiz-adv-x="1280" d="M131 518v981h109v-981q0 -88 33.5 -166t91 -136t135.5 -92t168 -34q88 0 165.5 34t136 92t92.5 136t34 166v981h106v-981q0 -111 -42 -208t-114.5 -169.5t-170 -114.5t-207.5 -42q-111 0 -209.5 42t-171 114.5t-114.5 170t-42 207.5z" />
<glyph unicode="V" horiz-adv-x="1470" d="M31 1491h116l201 -467l383 -889l381 889l201 467h117l-201 -467l-441 -1024h-116l-441 1024z" />
<glyph unicode="W" horiz-adv-x="1705" d="M102 381v1114h107v-1114q0 -61 23.5 -115.5t63.5 -94.5t93 -62.5t115 -22.5q61 0 114.5 22.5t93.5 62.5t63.5 94t23.5 116v1114h106v-1114q0 -61 22.5 -115.5t62.5 -94.5t94.5 -62.5t115.5 -22.5t114.5 22.5t93.5 62.5t63.5 94t23.5 116v1114h107v-1114q0 -84 -32 -156.5 t-86 -127t-128 -86t-156 -31.5q-113 0 -204 54t-144 146q-53 -92 -144.5 -146t-203.5 -54q-84 0 -157 31.5t-127 86t-86 127t-32 156.5z" />
<glyph unicode="X" horiz-adv-x="1116" d="M57 1499h123l355 -612l18 -33l18 31l283 489l72 125h125l-355 -612l-80 -142l431 -745h-125l-369 639l-369 -639h-123l431 745l-82 142l-287 497z" />
<glyph unicode="Y" horiz-adv-x="1212" d="M35 1499h123l90 -158l344 -591l18 -35l21 35l366 636l66 113h123l-445 -772l-77 -133v-594h-107v594l-74 127z" />
<glyph unicode="Z" horiz-adv-x="1157" d="M63 0l617 1067l188 324h-698v108h760h123l-248 -432l-555 -961h833v-106h-895h-125z" />
<glyph unicode="[" horiz-adv-x="679" d="M121 -215v2023h106h254v-106h-254v-1811h254v-106h-360z" />
<glyph unicode="\" horiz-adv-x="1175" d="M96 1497h123l858 -1497h-123z" />
<glyph unicode="]" horiz-adv-x="673" d="M150 -109h256v1811h-256v106h256h106v-2023h-362v106z" />
<glyph unicode="^" horiz-adv-x="1267" d="M125 932l416 418l75 75l76 -75l418 -418h-152l-342 342l-340 -342h-151z" />
<glyph unicode="_" horiz-adv-x="1447" d="M121 -211h1196v-106h-1196v106z" />
<glyph unicode="a" horiz-adv-x="1185" d="M35 514q0 111 42 209t114.5 171t169.5 115t208 42t209.5 -42t171 -115t114.5 -171t42 -209v-512h-109v191q-72 -98 -183.5 -155.5t-244.5 -57.5q-111 0 -208 41.5t-169.5 114.5t-114.5 170t-42 208zM141 514q0 -88 34 -166t92.5 -136t136 -92t165.5 -34t167 34t136.5 92 t91 136t33.5 166t-33.5 167t-91 136t-136.5 91t-167 34t-165.5 -34t-136 -91t-92.5 -136t-34 -167z" />
<glyph unicode="b" horiz-adv-x="1228" d="M78 510v1024h106v-703q74 98 185.5 157t242.5 59q111 0 209.5 -42t171 -115t114.5 -171t42 -209t-42 -208t-114.5 -170t-171 -115t-209.5 -42t-208 42t-169.5 115t-114.5 170t-42 208zM184 510q0 -88 34 -166t92.5 -136t136 -92t165.5 -34t167 34t136.5 92t91 136 t33.5 166t-33.5 167t-91 136t-136.5 91t-167 34t-165.5 -34t-136 -91t-92.5 -136t-34 -167z" />
<glyph unicode="c" horiz-adv-x="948" d="M70 518q0 111 42 209t114.5 171t170 115t207.5 42q84 0 157 -32t128 -87l-76 -76q-41 41 -94 63.5t-115 22.5q-88 0 -166 -33.5t-136 -91t-92 -136.5t-34 -167t34 -166t92 -136t136 -92t166 -34q61 0 114.5 22.5t94.5 63.5l76 -76q-55 -53 -128 -84.5t-157 -31.5 q-111 0 -208 42t-169.5 114.5t-114.5 170t-42 207.5z" />
<glyph unicode="d" horiz-adv-x="1130" d="M12 514q0 111 42 209t115 171t170 115t208 42q133 0 243.5 -58.5t184.5 -156.5v702h106v-1024q0 -111 -42 -208t-114.5 -170t-170 -114.5t-207.5 -41.5q-111 0 -208 41.5t-170 114.5t-115 170t-42 208zM119 514q0 -88 33.5 -166t92 -136t136.5 -92t166 -34t166 34t136 92 t92 136t34 166t-34 167t-92 136t-136 91t-166 34t-166 -34t-136.5 -91t-92 -136t-33.5 -167z" />
<glyph unicode="e" horiz-adv-x="1173" d="M51 508q0 111 42 209t115 171t171 114.5t209 41.5t208 -41.5t169.5 -114.5t114.5 -171.5t42 -208.5v-26.5t-2 -26.5h-24h-934q10 -80 47 -147.5t93 -119t130 -80t156 -28.5q59 0 112.5 22.5t94.5 63.5l75 -76q-53 -53 -125.5 -85t-156.5 -32q-111 0 -209 42t-171 115 t-115 170t-42 208zM162 561h850q-10 80 -47 147.5t-93.5 119t-129 80t-154.5 28.5t-156 -28.5t-130 -80t-93 -119t-47 -147.5z" />
<glyph unicode="f" horiz-adv-x="737" d="M135 0v565v109v637q0 55 21.5 103t57.5 85t85 57.5t104 20.5t104.5 -20.5t85.5 -57.5t57.5 -85t21.5 -103h-109q0 66 -47 112.5t-113 46.5t-112.5 -47t-46.5 -112v-637h385v-109h-385v-565h-109z" />
<glyph unicode="g" horiz-adv-x="1155" d="M23 508q0 111 41.5 209t114.5 171t170 114.5t208 41.5t208 -41.5t170 -114.5t115 -171.5t42 -208.5q0 -82 -24 -158t-65.5 -139.5t-101 -112.5t-129.5 -80q86 -53 136 -142t50 -198q0 -84 -31.5 -156.5t-86 -126.5t-128 -86t-155.5 -32v107q61 0 114.5 23.5t93.5 63.5 t63.5 93t23.5 114t-23.5 114.5t-63.5 93.5t-93.5 63.5t-114.5 23.5q-111 0 -208 42t-170 115t-114.5 170t-41.5 208zM129 508q0 -88 34 -166t92 -136.5t136 -92t166 -33.5t167 33.5t136.5 92t91 136.5t33.5 166t-33.5 167t-91 136t-136.5 91t-167 34t-166 -34t-136 -91 t-92 -136t-34 -167z" />
<glyph unicode="h" horiz-adv-x="1054" d="M121 0v647v889h108v-616q55 59 131 94t164 35q82 0 156 -32t128 -86t86 -128t32 -156v-647h-109v647q0 61 -22.5 114.5t-62.5 93.5t-93 62.5t-115 22.5q-61 0 -115.5 -22.5t-94.5 -62.5t-62.5 -93t-22.5 -115v-647h-108z" />
<glyph unicode="i" horiz-adv-x="299" d="M82 0v1024h106v-1024h-106zM82 1362v174h106v-174h-106z" />
<glyph unicode="j" horiz-adv-x="364" d="M-23 -612q66 0 113 47t47 114v1475h109v-1475q0 -55 -21.5 -104t-57.5 -85t-85 -57.5t-105 -21.5v107zM137 1362v174h109v-174h-109z" />
<glyph unicode="k" horiz-adv-x="980" d="M143 0v1536h107v-1024l512 512h151l-512 -512l512 -512h-151l-512 512v-512h-107z" />
<glyph unicode="l" horiz-adv-x="382" d="M72 246v1290h106v-1290q0 -68 47 -115t115 -47v-107q-55 0 -104.5 20.5t-85 57.5t-57 86t-21.5 105z" />
<glyph unicode="m" horiz-adv-x="1705" d="M102 0v647q0 82 32 156t86 128t127 86t157 32q111 0 203 -55.5t145 -147.5q53 92 144 147.5t204 55.5q82 0 156 -32t128 -86t86 -128t32 -156v-647h-109v647q0 61 -22.5 114.5t-62.5 93.5t-93 62.5t-115 22.5q-61 0 -115.5 -22.5t-94.5 -62.5t-62.5 -93t-22.5 -115v-647 h-106v647q0 61 -23.5 114.5t-63.5 93.5t-93.5 62.5t-114.5 22.5t-115.5 -22.5t-94.5 -62.5t-62.5 -93t-22.5 -115v-647h-107z" />
<glyph unicode="n" horiz-adv-x="1259" d="M78 0v512q0 111 42 209t114.5 171t169.5 115t208 42t208.5 -42t170 -115t114.5 -171t42 -209v-512h-107v512q0 88 -33.5 167t-91 136t-136.5 91t-167 34t-165.5 -34t-136 -91t-92.5 -136t-34 -167v-512h-106z" />
<glyph unicode="o" horiz-adv-x="1150" d="M33 512q0 111 42 209t114.5 171t169.5 115t208 42t208 -42t170 -115t115 -171t42 -209t-42 -208t-115 -170t-170 -115t-208 -42t-208 42t-169.5 115t-114.5 170t-42 208zM139 512q0 -88 34 -166t91.5 -136t135 -92t167.5 -34q88 0 166 34t136.5 92t92 136t33.5 166 t-33.5 167t-92 136t-136.5 91t-166 34q-90 0 -167.5 -34t-135 -91t-91.5 -136t-34 -167z" />
<glyph unicode="p" horiz-adv-x="1288" d="M117 508q0 111 42 209t114.5 171t170.5 114.5t209 41.5t208 -41.5t170 -114.5t115 -171.5t42 -208.5q0 -111 -42 -208t-115 -170t-170 -115t-208 -42q-133 0 -244.5 57.5t-183.5 155.5v-702h-108v1024zM225 508q0 -88 34 -166t91.5 -136.5t135 -92t167.5 -33.5 q88 0 166 33.5t136.5 92t92 136.5t33.5 166t-33.5 167t-92 136t-136.5 91t-166 34q-90 0 -167.5 -34t-135 -91t-91.5 -136t-34 -167z" />
<glyph unicode="q" horiz-adv-x="1280" d="M111 504q0 111 42 209t114.5 170.5t169.5 114.5t208 42t209 -42t171 -114.5t115 -171t42 -208.5v-1024h-107v702q-74 -98 -185.5 -155.5t-244.5 -57.5q-111 0 -208 42t-169.5 115t-114.5 170t-42 208zM217 504q0 -88 34 -166t92 -136.5t136 -92t166 -33.5t167 33.5 t137.5 92t92 136.5t33.5 166t-33.5 167t-92 136t-137.5 91t-167 34t-166 -34t-136 -91t-92 -136t-34 -167z" />
<glyph unicode="r" horiz-adv-x="681" d="M135 0v512q0 111 42 209t115 171t170 115t208 42v-109q-88 0 -166 -34t-136.5 -91t-92 -136t-33.5 -167v-512h-107z" />
<glyph unicode="s" horiz-adv-x="843" d="M70 723q-2 14 -2 29.5t2 31.5q2 53 23.5 99.5t57 80t84 53t101.5 19.5h385v-106h-385q-63 0 -109.5 -43t-50.5 -107q-4 -27 0 -53q4 -63 50 -106t110 -43h151h2q53 0 101.5 -19.5t84.5 -54.5t57.5 -81t23.5 -99v-56v-2v-4q0 -55 -21.5 -102t-58.5 -83t-85 -56.5 t-104 -20.5h-395v106h395q59 0 104.5 38t55.5 98q0 6 1 13t1 13v43q-2 66 -49 113t-113 47h-151q-53 0 -101.5 19.5t-84 53.5t-57 80t-23.5 99z" />
<glyph unicode="t" horiz-adv-x="724" d="M152 252v1036h106v-268h387v-107h-387v-661q0 -66 47 -113t115 -47q66 0 113 47t47 113h106q0 -55 -20.5 -104.5t-57.5 -85t-85 -57t-103 -21.5t-104.5 21.5t-85 57t-57 85t-21.5 104.5z" />
<glyph unicode="u" horiz-adv-x="980" d="M80 381v645h106v-645q0 -61 22.5 -115.5t62.5 -94.5t94.5 -62.5t115.5 -22.5t114.5 22.5t93.5 62.5t62.5 94t22.5 116v645h109v-645q0 -84 -32 -156.5t-86 -127t-128 -86t-156 -31.5q-84 0 -156.5 31.5t-127 86t-86 127t-31.5 156.5z" />
<glyph unicode="v" horiz-adv-x="1079" d="M37 1024h117l381 -889l380 889h117l-440 -1024h-115z" />
<glyph unicode="w" horiz-adv-x="1705" d="M102 379v645h109v-645q0 -61 22.5 -115.5t62.5 -94.5t93 -62.5t115 -22.5q61 0 114.5 22.5t93.5 62.5t63.5 94t23.5 116v645h106v-645q0 -61 23.5 -115.5t63.5 -94.5t93.5 -62.5t114.5 -22.5t114.5 22.5t93.5 62.5t63.5 94t23.5 116v645h107v-645q0 -84 -32 -156.5 t-86 -127t-128 -86.5t-156 -32q-111 0 -203 54.5t-145 146.5q-53 -92 -144 -146.5t-204 -54.5q-84 0 -157 32t-127 86.5t-86 127t-32 156.5z" />
<glyph unicode="x" horiz-adv-x="860" d="M66 0l296 512l-296 512h124l234 -406l233 406h123l-295 -512l295 -512h-123l-233 406l-234 -406h-124z" />
<glyph unicode="y" horiz-adv-x="1046" d="M121 381v645h108v-645q0 -61 22.5 -115.5t62.5 -94.5t93.5 -62.5t114.5 -22.5t114.5 22.5t93.5 62.5t63.5 94t23.5 116v645h107v-645v-496q0 -84 -32 -156.5t-86 -127t-127 -86t-157 -31.5v106q61 0 114.5 24t93.5 63.5t63.5 93t23.5 114.5v224q-55 -59 -131 -94 t-164 -35q-84 0 -156.5 31.5t-127 86t-86 127t-31.5 156.5z" />
<glyph unicode="z" horiz-adv-x="862" d="M82 0l528 918h-479v106h541h125l-531 -918h488v-106h-549h-123z" />
<glyph unicode="{" horiz-adv-x="798" d="M80 698v107q61 0 114.5 23.5t93.5 63.5t63.5 93t23.5 115v397q0 111 41 208t112 169l2 2l76 -76l-2 -2q-57 -59 -90 -136t-33 -165v-397v-41h-2q-10 -98 -63.5 -179t-134.5 -128q90 -53 145 -144.5t55 -204.5v-397q0 -88 33 -165t90 -134l2 -4l-76 -76l-2 2 q-66 66 -105.5 152t-47.5 184v41v397q0 61 -23.5 114.5t-63.5 93.5t-93.5 63.5t-114.5 23.5z" />
<glyph unicode="|" horiz-adv-x="561" d="M238 -377v1923h106v-1923h-106z" />
<glyph unicode="}" horiz-adv-x="849" d="M150 -297l2 4q57 57 89.5 134t32.5 165v397q0 113 54.5 204t146.5 145q-82 47 -135 128t-64 179h-2v41v397q0 88 -32.5 165t-89.5 136l-2 2l75 76l2 -2q72 -72 113 -169t41 -208v-397q0 -61 23.5 -114.5t63.5 -93.5t93 -63.5t115 -23.5v-107q-61 0 -114.5 -23.5 t-93.5 -63.5t-63.5 -93t-23.5 -115v-397v-41q-8 -98 -48 -184t-106 -152l-2 -2z" />
<glyph unicode="&#xad;" d="M141 559v109h799v-109h-799z" />
<glyph unicode="&#xb0;" horiz-adv-x="667" d="M61 1276q0 55 21.5 104.5t57.5 86t85.5 57t104.5 20.5t103 -20.5t85 -57t57.5 -86t20.5 -104.5t-20.5 -103.5t-57.5 -85t-85 -57t-103 -20.5t-104.5 20.5t-85.5 57t-57.5 85t-21.5 103.5zM168 1276q0 -66 47 -113t115 -47q66 0 112.5 47t46.5 113q0 68 -46.5 115 t-112.5 47q-68 0 -115 -47.5t-47 -114.5z" />
<glyph unicode="&#x2000;" horiz-adv-x="938" />
<glyph unicode="&#x2001;" horiz-adv-x="1876" />
<glyph unicode="&#x2002;" horiz-adv-x="938" />
<glyph unicode="&#x2003;" horiz-adv-x="1876" />
<glyph unicode="&#x2004;" horiz-adv-x="625" />
<glyph unicode="&#x2005;" horiz-adv-x="469" />
<glyph unicode="&#x2006;" horiz-adv-x="312" />
<glyph unicode="&#x2007;" horiz-adv-x="312" />
<glyph unicode="&#x2008;" horiz-adv-x="234" />
<glyph unicode="&#x2009;" horiz-adv-x="375" />
<glyph unicode="&#x200a;" horiz-adv-x="104" />
<glyph unicode="&#x2010;" d="M141 559v109h799v-109h-799z" />
<glyph unicode="&#x2011;" d="M141 559v109h799v-109h-799z" />
<glyph unicode="&#x2012;" d="M141 559v109h799v-109h-799z" />
<glyph unicode="&#x2013;" horiz-adv-x="1294" d="M141 559v109h1024v-109h-1024z" />
<glyph unicode="&#x2014;" horiz-adv-x="2318" d="M141 559v109h2048v-109h-2048z" />
<glyph unicode="&#x202f;" horiz-adv-x="375" />
<glyph unicode="&#x205f;" horiz-adv-x="469" />
<glyph unicode="&#x20ac;" horiz-adv-x="1280" d="M86 555v109h111v161h-111v107h111v47q0 111 42 209t114.5 171t169.5 115t208 42q150 0 271.5 -74t191.5 -195l-92 -53q-55 96 -153.5 154.5t-217.5 58.5q-90 0 -168 -34t-135 -91t-91 -136t-34 -167v-47h701v-107h-701v-161h701v-109h-701v-47q0 -88 34 -166t91 -136.5 t135 -92t168 -33.5q119 0 217.5 58.5t153.5 156.5l92 -53q-70 -121 -191.5 -195t-271.5 -74q-111 0 -208 42t-169.5 115t-114.5 170t-42 208v47h-111z" />
<glyph unicode="&#xe000;" horiz-adv-x="1024" d="M0 0v1024h1024v-1024h-1024z" />
</font>
</defs>
</svg>
